<svg version="1.2" xmlns="http://www.w3.org/2000/svg" viewBox="0 0 1200 1200" width="1200" height="1200">
	<title>Evenova Logo</title>
	<defs>
		<linearGradient id="g1" x2="1" gradientUnits="userSpaceOnUse" gradientTransform="matrix(0,-136.96,896.66,0,611,604.48)">
			<stop offset="0" stop-color="#330d69"/>
			<stop offset="1" stop-color="#30c9cd"/>
		</linearGradient>
	</defs>
	<style>
		.s0 { fill: url(#g1) } 
	</style>
	<path id="Evenova" class="s0" aria-label="Evenova"  d="m296.3 524.5v23h-72.1v-23zm10.3 51.6v22.9h-82.5q-4.7 0-10.3-1.7-5.7-1.6-10.5-5.4-4.7-3.9-8-10-3.2-6.1-3.2-15v-82.4q0-2.4 0.9-4.5 0.9-2.1 2.4-3.7 1.6-1.6 3.7-2.5 2.1-0.8 4.5-0.8h103v22.8h-91.6v71.1q0 4.5 2.4 6.9 2.3 2.3 6.9 2.3zm108-72.1h24.3q-3.9 12-9.1 23.7-5.2 11.7-11.9 22.3-6.7 10.6-15.1 19.6-8.2 9-18.3 15.6-10 6.5-21.9 10.3-11.8 3.7-25.6 3.7-2.4 0-4.5-0.9-2.1-0.9-3.7-2.4-1.5-1.6-2.4-3.6-0.9-2.1-0.9-4.5v-83.8h22.9v71.4q8.3 0 15.9-3.6 7.8-3.6 14.6-9.5 6.9-5.9 12.7-13.5 5.9-7.5 10.5-15.5 4.5-8 7.7-15.6 3.2-7.6 4.8-13.7zm134.7 31.5q0 4.7-1.7 10.2-1.7 5.5-5.4 10.2-3.7 4.7-9.8 7.9-6 3.1-14.6 3.1h-41.2v-21.7h41.2q4.7 0 7.2-2.8 2.6-2.9 2.6-7.1 0-4.5-2.9-7.1-2.9-2.5-6.9-2.5h-41.2q-4.7 0-7.2 2.9-2.6 2.8-2.6 7v31.9q0 4.6 2.8 7.2 2.9 2.5 7.2 2.5h41v21.8h-41.2q-4.8 0-10.3-1.7-5.4-1.6-10.2-5.3-4.7-3.8-7.8-9.8-3.2-6.1-3.2-14.7v-32q0-4.8 1.7-10.2 1.7-5.6 5.4-10.2 3.7-4.8 9.7-7.9 6.1-3.2 14.7-3.2h41.2q4.8 0 10.2 1.7 5.5 1.6 10.2 5.4 4.7 3.7 7.9 9.8 3.2 5.9 3.2 14.6zm120.6 10.8v52.7h-22.8v-52.7q0-4.5-1.6-8-1.5-3.6-4.1-6.2-2.7-2.5-6.3-3.9-3.5-1.4-7.6-1.4h-40v72.2h-22.8v-83.7q0-2.3 0.8-4.4 0.9-2.1 2.5-3.6 1.6-1.6 3.7-2.4 2.1-0.9 4.5-0.9h51.5q4.3 0 9 1 4.9 0.9 9.5 3.1 4.8 2.1 9 5.5 4.3 3.2 7.5 8 3.4 4.6 5.3 10.8 1.9 6.1 1.9 13.9zm123.4-10.3v30.9q0 5.9-1.5 10.7-1.4 4.6-3.9 8.2-2.5 3.5-5.7 6.1-3.3 2.4-6.9 4-3.5 1.6-7.2 2.4-3.6 0.7-6.8 0.7h-41.3q-4.7 0-10.3-1.7-5.7-1.6-10.5-5.4-4.7-3.9-8-10-3.2-6.1-3.2-15v-30.9q0-8.8 3.2-14.9 3.3-6.1 8-9.9 4.8-3.9 10.5-5.5 5.6-1.7 10.3-1.7h41.3q8.8 0 14.9 3.2 6.2 3.1 9.9 8 3.8 4.7 5.5 10.3 1.7 5.6 1.7 10.5zm-22.8 30.9v-30.7q0-4.8-2.4-7.1-2.4-2.3-6.8-2.3h-41.1q-4.6 0-6.9 2.4-2.4 2.3-2.4 6.8v30.9q0 4.5 2.4 6.9 2.3 2.3 6.9 2.3h41.1q4.6 0 6.9-2.3 2.3-2.4 2.3-6.9zm131.4-62.9h24.2q-3.8 12-9 23.7-5.2 11.7-12 22.3-6.6 10.6-15 19.6-8.3 9-18.4 15.6-10 6.5-21.8 10.3-11.8 3.7-25.6 3.7-2.4 0-4.5-0.9-2.1-0.9-3.7-2.4-1.6-1.6-2.5-3.6-0.8-2.1-0.8-4.5v-83.8h22.8v71.4q8.4 0 16-3.6 7.7-3.6 14.6-9.5 6.9-5.9 12.7-13.5 5.8-7.5 10.4-15.5 4.6-8 7.8-15.6 3.2-7.6 4.8-13.7zm127.6 31.5v32q0 4.8-1.7 10.3-1.6 5.5-5.4 10.2-3.7 4.7-9.8 7.8-5.9 3.2-14.6 3.2h-41.2q-4.7 0-10.3-1.7-5.4-1.6-10.2-5.3-4.6-3.8-7.8-9.8-3.1-6.1-3.1-14.7 0-4.7 1.6-10.2 1.7-5.6 5.4-10.2 3.8-4.8 9.7-8 6.1-3.1 14.7-3.1h41.2v21.8h-41.2q-4.6 0-7.2 2.9-2.5 2.8-2.5 7 0 4.5 2.9 7 3 2.5 7 2.5h41q4.7 0 7.2-2.8 2.6-2.8 2.6-7v-31.9q0-4.5-2.8-7.2-2.7-2.6-7-2.6h-50.1v-21.7h50.1q4.8 0 10.2 1.7 5.6 1.6 10.2 5.4 4.8 3.7 7.9 9.8 3.2 5.9 3.2 14.6z"/>
</svg>